<?xml version="1.0" standalone="no"?>
<!DOCTYPE svg PUBLIC "-//W3C//DTD SVG 20010904//EN"
 "http://www.w3.org/TR/2001/REC-SVG-20010904/DTD/svg10.dtd">
<svg version="1.0" xmlns="http://www.w3.org/2000/svg"
 width="700.000000pt" height="700.000000pt" viewBox="0 0 700.000000 700.000000"
 preserveAspectRatio="xMidYMid meet">
<metadata>
Created by potrace 1.11, written by Peter Selinger 2001-2013
</metadata>
<g transform="translate(0.000000,700.000000) scale(0.100000,-0.100000)"
fill="#000000" stroke="none">
<path d="M3328 6995 c-2 -1 -48 -5 -104 -9 -55 -4 -109 -8 -120 -10 -10 -2
-45 -7 -78 -11 -66 -8 -75 -9 -210 -36 -500 -98 -989 -316 -1411 -628 -55 -41
-102 -77 -105 -80 -3 -3 -44 -39 -92 -79 -89 -75 -308 -297 -375 -380 -21 -26
-46 -56 -56 -67 -35 -37 -192 -259 -249 -350 -230 -368 -391 -789 -472 -1235
-17 -92 -19 -106 -38 -255 -18 -152 -14 -730 6 -764 2 -3 7 -33 11 -65 5 -50
29 -186 51 -296 3 -13 23 -87 44 -165 59 -212 131 -404 223 -592 l54 -112 234
134 c129 74 241 139 249 144 8 5 88 51 177 103 90 51 163 97 163 101 0 4 -11
29 -24 55 -103 203 -199 528 -231 777 -27 214 -23 542 9 703 3 15 8 46 11 69
17 122 114 441 170 558 8 17 29 62 46 100 149 328 415 659 719 896 360 281
785 459 1250 524 48 7 128 13 170 14 l25 1 0 475 c0 261 -2 475 -5 476 -3 0
-13 2 -22 4 -9 2 -18 2 -20 0z"/>
<path d="M3629 6946 c-2 -184 0 -898 3 -901 1 -2 37 -6 78 -10 249 -22 411
-57 640 -137 146 -51 327 -136 443 -207 37 -22 69 -41 72 -41 9 0 229 -163
275 -204 342 -301 567 -614 723 -1006 46 -115 113 -333 123 -400 3 -19 9 -51
14 -70 8 -34 21 -113 25 -155 44 -421 4 -793 -126 -1161 -32 -90 -98 -246
-125 -297 -9 -15 -12 -26 -7 -25 5 2 78 -37 163 -87 85 -49 169 -97 185 -106
17 -9 119 -69 228 -133 109 -64 202 -116 207 -116 4 0 13 -7 20 -15 17 -21 22
-15 76 95 101 207 195 463 249 680 69 275 99 534 100 840 0 213 -9 354 -30
500 -95 638 -353 1229 -750 1715 -79 97 -98 117 -190 215 -60 64 -190 186
-259 245 -33 28 -64 55 -70 60 -65 60 -352 253 -489 329 -355 196 -777 343
-1147 400 -128 19 -218 29 -377 40 l-53 4 -1 -52z"/>
<path d="M3377 5724 c-1 -1 -39 -5 -84 -8 -98 -8 -258 -36 -368 -66 -614 -167
-1118 -576 -1410 -1145 -50 -99 -130 -293 -139 -339 -2 -6 -10 -34 -18 -63
-15 -47 -50 -211 -63 -293 -26 -174 -24 -485 6 -655 16 -94 16 -96 34 -170
108 -463 393 -917 760 -1211 33 -27 62 -51 65 -54 3 -3 43 -30 90 -61 446
-294 919 -418 1435 -376 557 46 1076 300 1453 712 307 335 495 732 566 1190
25 164 26 491 2 622 -2 10 -7 38 -11 63 -27 175 -112 434 -204 620 -49 98
-141 256 -172 294 -5 6 -38 49 -74 96 -183 236 -431 442 -710 590 -184 97
-466 193 -665 224 -19 4 -45 8 -57 10 -66 13 -425 30 -436 20z m382 -978 c314
-70 572 -237 766 -495 96 -127 189 -334 220 -492 3 -13 8 -35 11 -49 14 -58
13 -336 -2 -410 -38 -198 -81 -312 -172 -465 -117 -195 -310 -370 -527 -478
-73 -36 -231 -90 -300 -102 -22 -4 -49 -10 -60 -12 -42 -10 -332 -12 -373 -3
-23 6 -55 12 -70 14 -72 9 -211 56 -312 105 -207 102 -363 239 -508 450 -44
64 -111 207 -141 302 -133 418 -43 882 235 1204 71 82 86 98 149 151 187 157
402 257 625 289 25 4 47 8 49 10 11 12 344 -4 410 -19z"/>
<path d="M1319 2093 c-24 -14 -62 -35 -84 -48 -93 -52 -690 -398 -694 -401 -6
-5 102 -165 178 -264 177 -230 415 -471 627 -636 355 -275 738 -471 1164 -598
116 -34 155 -44 200 -52 14 -3 43 -10 65 -16 22 -5 49 -12 60 -14 11 -1 47 -8
80 -13 33 -6 83 -13 110 -16 28 -3 60 -8 71 -10 159 -27 590 -26 819 1 118 14
295 46 370 66 22 5 51 12 65 15 43 8 251 71 350 107 196 70 450 193 625 302
130 81 280 184 315 216 14 13 43 36 65 53 22 16 56 44 75 61 19 18 46 42 60
54 122 105 315 313 438 472 58 76 182 257 182 267 0 6 -223 138 -399 237 -31
17 -137 79 -236 137 -99 58 -183 103 -187 101 -3 -2 -32 -40 -62 -84 -313
-446 -800 -799 -1321 -958 -146 -44 -209 -59 -380 -87 -196 -32 -526 -37 -685
-10 -14 2 -45 7 -70 10 -57 7 -218 41 -290 61 -328 91 -629 242 -900 453 -168
130 -396 372 -520 551 l-47 69 -44 -26z"/>
</g>
</svg>
